<?xml version="1.0" encoding="UTF-8"?>
<svg
   xmlns="http://www.w3.org/2000/svg"
   viewBox="0 0 213.33333 213.33333"
   height="128"
   width="128"
   version="1.1"
   id="icon_all_tags">
  <g transform="matrix(1.3333333,0,0,-1.3333333,0,213.33333)">
    <g transform="scale(0.1)">
      <path fill="#000000"
         d="m 200.004,1250 v -49.99 H 1100 c 55.21,-0.12 99.89,-44.8 100.01,-100.01 V 200.004 C 1199.89,144.785 1155.21,100.109 1100,99.9922 H 200.004 C 144.785,100.109 100.109,144.785 99.9922,200.004 V 1100 c 0.1168,55.21 44.7928,99.89 100.0118,100.01 v 49.99 50 C 89.5313,1299.97 0.03125,1210.47 -0.00390625,1100 V 200.004 C 0.03125,89.5313 89.5313,0.03125 200.004,-0.00390625 H 1100 C 1210.47,0.03125 1299.97,89.5313 1300,200.004 V 1100 c -0.03,110.47 -89.53,199.97 -200,200 H 200.004 v -50 z" />
      <path fill="#000000"
         d="m 399.992,1400 c 0.113,55.21 44.793,99.89 100.012,100.01 H 1400 c 55.21,-0.12 99.89,-44.8 100.01,-100.01 V 500.004 c -0.12,-55.219 -44.8,-99.899 -100.01,-100.012 v -99.996 c 110.47,0.035 199.97,89.535 200,200.008 V 1400 c -0.03,110.47 -89.53,199.97 -200,200 H 500.004 c -110.473,-0.03 -199.973,-89.53 -200.008,-200 h 99.996 z" />
      <path fill="#000000"
         d="M 635.301,526.352 753.953,330.363 888.43,419.137 c -12.305,15.218 -29.012,34.855 -50.106,58.875 L 732.859,596.664 c 85.536,14.074 160.84,28.426 225.868,43.07 L 912.156,798.82 c -44.543,-17 -93.176,-37.504 -145.898,-61.527 -38.684,-18.16 -63.883,-29.582 -75.582,-34.281 15.804,114.269 23.726,192.781 23.726,235.554 l -156.453,0 c 0,-60.363 7.035,-138.289 21.094,-233.785 -60.352,37.489 -128.914,71.77 -205.66,102.828 L 321.527,652.922 C 337.352,647.051 370.16,637.984 419.973,625.68 489.09,608.676 531,599.004 545.645,596.664 540.945,591.969 529.527,580.859 511.379,563.266 465.676,519.902 421.723,474.512 379.535,427.039 L 512.246,324.211 c 46.277,71.477 87.301,138.863 123.055,202.141 l 0,0 z" />
    </g>
  </g>
</svg>