<?xml version="1.0" encoding="UTF-8"?>
<svg
   xmlns="http://www.w3.org/2000/svg"
   viewBox="0 0 213.33333 213.33333"
   height="128"
   width="128"
   version="1.1"
   id="icon_copyright_tags">
  <g transform="matrix(1.3333333,0,0,-1.3333333,0,213.33333)">
    <g transform="scale(0.1)">
      <path fill="#000000"
         d="m 200.004,1250 v -49.99 H 1100 c 55.21,-0.12 99.89,-44.8 100.01,-100.01 V 200.004 C 1199.89,144.785 1155.21,100.109 1100,99.9922 H 200.004 C 144.785,100.109 100.109,144.785 99.9922,200.004 V 1100 c 0.1168,55.21 44.7928,99.89 100.0118,100.01 v 49.99 50 C 89.5313,1299.97 0.03125,1210.47 -0.00390625,1100 V 200.004 C 0.03125,89.5313 89.5313,0.03125 200.004,-0.00390625 H 1100 C 1210.47,0.03125 1299.97,89.5313 1300,200.004 V 1100 c -0.03,110.47 -89.53,199.97 -200,200 H 200.004 v -50 z" />
      <path fill="#000000"
         d="m 399.992,1400 c 0.113,55.21 44.793,99.89 100.012,100.01 H 1400 c 55.21,-0.12 99.89,-44.8 100.01,-100.01 V 500.004 c -0.12,-55.219 -44.8,-99.899 -100.01,-100.012 v -99.996 c 110.47,0.035 199.97,89.535 200,200.008 V 1400 c -0.03,110.47 -89.53,199.97 -200,200 H 500.004 c -110.473,-0.03 -199.973,-89.53 -200.008,-200 h 99.996 z" />
      <path fill="#000000"
         d="m 752.414,613.012 c -9.539,-43.348 -44.199,-64.996 -103.992,-64.996 -27.75,0 -48.106,11.699 -61.102,35.101 -13.007,23.399 -19.504,50.696 -19.504,81.899 0,31.207 6.497,58.5 19.504,81.902 12.996,23.398 33.352,35.098 61.102,35.098 59.793,0 93.601,-17.344 101.391,-52.004 h 122.203 c 0,35.527 -10.848,68.679 -32.496,99.461 -21.684,30.746 -49.192,53.949 -82.555,69.543 -33.367,15.593 -68.695,23.402 -105.938,23.402 -47.683,0 -90.804,-11.277 -129.355,-33.809 -38.57,-22.531 -67.828,-53.296 -87.758,-92.293 -19.949,-38.992 -29.898,-82.765 -29.898,-131.3 0,-75.403 22.109,-137.145 66.304,-185.25 44.2,-48.094 103.551,-72.149 178.102,-72.149 42.449,0 80.594,8.442 114.398,25.348 33.793,16.902 60.45,40.726 79.953,71.508 19.493,30.746 30.977,66.945 34.446,108.539 z M 423.523,1052.41 C 352.438,1010.81 296.77,955.34 256.465,886.023 216.16,816.676 196.02,741.27 196.02,659.813 c 0,-80.59 20.566,-155.997 61.753,-226.196 41.157,-70.199 96.84,-125.902 167.043,-167.054 70.2,-41.157 145.602,-61.743 226.211,-61.743 79.723,0 154.243,20.801 223.59,62.395 69.332,41.598 123.922,97.285 163.803,167.058 39.85,69.743 59.79,144.95 59.79,225.54 0,78.855 -19.94,153.835 -59.79,224.902 -39.881,71.051 -94.471,127.175 -163.803,168.345 -69.347,41.16 -143.867,61.76 -223.59,61.76 -80.609,0 -156.453,-20.8 -227.504,-62.41 z M 813.516,949.711 c 49.402,-32.074 88.398,-73.898 117,-125.445 28.605,-51.578 42.906,-106.395 42.906,-164.453 0,-58.075 -14.531,-113.547 -43.559,-166.403 -29.047,-52.871 -68.043,-94.695 -117,-125.441 -48.961,-30.781 -102.914,-46.149 -161.836,-46.149 -59.812,0 -114.629,15.368 -164.457,46.149 -49.843,30.746 -89.933,71.918 -120.254,123.496 -30.339,51.562 -45.492,107.672 -45.492,168.348 0,61.527 14.496,118.082 43.543,169.66 29.028,51.543 68.449,92.5 118.293,122.84 49.828,30.339 105.953,45.507 168.367,45.507 58.922,0 113.086,-16.054 162.489,-48.109 z" />
    </g>
  </g>
</svg>